<?xml version="1.0" encoding="UTF-8"?>
<!DOCTYPE svg  PUBLIC '-//W3C//DTD SVG 1.1//EN'  'http://www.w3.org/Graphics/SVG/1.1/DTD/svg11.dtd'>
<svg width="1152pt" height="576pt" version="1.1" viewBox="0 0 1152 576" xmlns="http://www.w3.org/2000/svg" xmlns:xlink="http://www.w3.org/1999/xlink">
 <metadata>
  <rdf:RDF xmlns:cc="http://creativecommons.org/ns#" xmlns:dc="http://purl.org/dc/elements/1.1/" xmlns:rdf="http://www.w3.org/1999/02/22-rdf-syntax-ns#">
   <cc:Work>
    <dc:type rdf:resource="http://purl.org/dc/dcmitype/StillImage"/>
    <dc:date>2022-01-19T00:24:58.243627</dc:date>
    <dc:format>image/svg+xml</dc:format>
    <dc:creator>
     <cc:Agent>
      <dc:title>Matplotlib v3.5.1, https://matplotlib.org/</dc:title>
     </cc:Agent>
    </dc:creator>
   </cc:Work>
  </rdf:RDF>
 </metadata>
 <defs>
  <style type="text/css">*{stroke-linejoin: round; stroke-linecap: butt}</style>
 </defs>
 <g id="figure_1">
  <g id="patch_1">
   <path d="m0 576h1152v-576h-1152z" fill="#fff"/>
  </g>
  <g id="axes_1">
   <g id="patch_2">
    <path d="m52.56 538.92h1079.4v-518.92h-1079.4z" fill="#fff"/>
   </g>
   <g id="matplotlib.axis_1">
    <g id="xtick_1">
     <g id="line2d_1">
      <path d="m101.63 538.92v-518.92" clip-path="url(#p06b7751b7f)" fill="none" stroke="#b0b0b0" stroke-linecap="square" stroke-width=".8"/>
     </g>
     <g id="line2d_2">
      <defs>
       <path id="m4b7b082ea9" d="m0 0v3.5" stroke="#000" stroke-width=".8"/>
      </defs>
      <use x="101.625455" y="538.92" stroke="#000000" stroke-width=".8" xlink:href="#m4b7b082ea9"/>
     </g>
     <g id="text_1">
      <!-- 1999 -->
      <g transform="translate(88.9 553.52) scale(.1 -.1)">
       <defs>
        <path id="DejaVuSans-31" transform="scale(.015625)" d="m794 531h1031v3560l-1122-225v575l1116 225h631v-4135h1031v-531h-2687v531z"/>
        <path id="DejaVuSans-39" transform="scale(.015625)" d="m703 97v575q238-113 481-172 244-59 479-59 625 0 954 420 330 420 377 1277-181-269-460-413-278-144-615-144-700 0-1108 423-408 424-408 1159 0 718 425 1152 425 435 1131 435 810 0 1236-621 427-620 427-1801 0-1103-524-1761-523-658-1407-658-238 0-482 47-243 47-506 141zm1256 1978q425 0 673 290 249 291 249 798 0 503-249 795-248 292-673 292t-673-292-248-795q0-507 248-798 248-290 673-290z"/>
       </defs>
       <use xlink:href="#DejaVuSans-31"/>
       <use x="63.623047" xlink:href="#DejaVuSans-39"/>
       <use x="127.246094" xlink:href="#DejaVuSans-39"/>
       <use x="190.869141" xlink:href="#DejaVuSans-39"/>
      </g>
     </g>
    </g>
    <g id="xtick_2">
     <g id="line2d_3">
      <path d="m146.23 538.92v-518.92" clip-path="url(#p06b7751b7f)" fill="none" stroke="#b0b0b0" stroke-linecap="square" stroke-width=".8"/>
     </g>
     <g id="line2d_4">
      <use x="146.230413" y="538.92" stroke="#000000" stroke-width=".8" xlink:href="#m4b7b082ea9"/>
     </g>
     <g id="text_2">
      <!-- 2000 -->
      <g transform="translate(133.51 553.52) scale(.1 -.1)">
       <defs>
        <path id="DejaVuSans-32" transform="scale(.015625)" d="m1228 531h2203v-531h-2962v531q359 372 979 998 621 627 780 809 303 340 423 576 121 236 121 464 0 372-261 606-261 235-680 235-297 0-627-103-329-103-704-313v638q381 153 712 231 332 78 607 78 725 0 1156-363 431-362 431-968 0-288-108-546-107-257-392-607-78-91-497-524-418-433-1181-1211z"/>
        <path id="DejaVuSans-30" transform="scale(.015625)" d="m2034 4250q-487 0-733-480-245-479-245-1442 0-959 245-1439 246-480 733-480 491 0 736 480 246 480 246 1439 0 963-246 1442-245 480-736 480zm0 500q785 0 1199-621 414-620 414-1801 0-1178-414-1799-414-620-1199-620-784 0-1198 620-414 621-414 1799 0 1181 414 1801 414 621 1198 621z"/>
       </defs>
       <use xlink:href="#DejaVuSans-32"/>
       <use x="63.623047" xlink:href="#DejaVuSans-30"/>
       <use x="127.246094" xlink:href="#DejaVuSans-30"/>
       <use x="190.869141" xlink:href="#DejaVuSans-30"/>
      </g>
     </g>
    </g>
    <g id="xtick_3">
     <g id="line2d_5">
      <path d="m235.44 538.92v-518.92" clip-path="url(#p06b7751b7f)" fill="none" stroke="#b0b0b0" stroke-linecap="square" stroke-width=".8"/>
     </g>
     <g id="line2d_6">
      <use x="235.440331" y="538.92" stroke="#000000" stroke-width=".8" xlink:href="#m4b7b082ea9"/>
     </g>
     <g id="text_3">
      <!-- 2002 -->
      <g transform="translate(222.72 553.52) scale(.1 -.1)">
       <use xlink:href="#DejaVuSans-32"/>
       <use x="63.623047" xlink:href="#DejaVuSans-30"/>
       <use x="127.246094" xlink:href="#DejaVuSans-30"/>
       <use x="190.869141" xlink:href="#DejaVuSans-32"/>
      </g>
     </g>
    </g>
    <g id="xtick_4">
     <g id="line2d_7">
      <path d="m280.05 538.92v-518.92" clip-path="url(#p06b7751b7f)" fill="none" stroke="#b0b0b0" stroke-linecap="square" stroke-width=".8"/>
     </g>
     <g id="line2d_8">
      <use x="280.045289" y="538.92" stroke="#000000" stroke-width=".8" xlink:href="#m4b7b082ea9"/>
     </g>
     <g id="text_4">
      <!-- 2003 -->
      <g transform="translate(267.32 553.52) scale(.1 -.1)">
       <defs>
        <path id="DejaVuSans-33" transform="scale(.015625)" d="m2597 2516q453-97 707-404 255-306 255-756 0-690-475-1069-475-378-1350-378-293 0-604 58t-642 174v609q262-153 574-231 313-78 654-78 593 0 904 234t311 681q0 413-289 645-289 233-804 233h-544v519h569q465 0 712 186t247 536q0 359-255 551-254 193-729 193-260 0-557-57-297-56-653-174v562q360 100 674 150t592 50q719 0 1137-327 419-326 419-882 0-388-222-655t-631-370z"/>
       </defs>
       <use xlink:href="#DejaVuSans-32"/>
       <use x="63.623047" xlink:href="#DejaVuSans-30"/>
       <use x="127.246094" xlink:href="#DejaVuSans-30"/>
       <use x="190.869141" xlink:href="#DejaVuSans-33"/>
      </g>
     </g>
    </g>
    <g id="xtick_5">
     <g id="line2d_9">
      <path d="m324.65 538.92v-518.92" clip-path="url(#p06b7751b7f)" fill="none" stroke="#b0b0b0" stroke-linecap="square" stroke-width=".8"/>
     </g>
     <g id="line2d_10">
      <use x="324.650248" y="538.92" stroke="#000000" stroke-width=".8" xlink:href="#m4b7b082ea9"/>
     </g>
     <g id="text_5">
      <!-- 2004 -->
      <g transform="translate(311.93 553.52) scale(.1 -.1)">
       <defs>
        <path id="DejaVuSans-34" transform="scale(.015625)" d="m2419 4116-1594-2491h1594v2491zm-166 550h794v-3041h666v-525h-666v-1100h-628v1100h-2106v609l1940 2957z"/>
       </defs>
       <use xlink:href="#DejaVuSans-32"/>
       <use x="63.623047" xlink:href="#DejaVuSans-30"/>
       <use x="127.246094" xlink:href="#DejaVuSans-30"/>
       <use x="190.869141" xlink:href="#DejaVuSans-34"/>
      </g>
     </g>
    </g>
    <g id="xtick_6">
     <g id="line2d_11">
      <path d="m369.26 538.92v-518.92" clip-path="url(#p06b7751b7f)" fill="none" stroke="#b0b0b0" stroke-linecap="square" stroke-width=".8"/>
     </g>
     <g id="line2d_12">
      <use x="369.255207" y="538.92" stroke="#000000" stroke-width=".8" xlink:href="#m4b7b082ea9"/>
     </g>
     <g id="text_6">
      <!-- 2005 -->
      <g transform="translate(356.53 553.52) scale(.1 -.1)">
       <defs>
        <path id="DejaVuSans-35" transform="scale(.015625)" d="m691 4666h2478v-532h-1900v-1143q137 47 274 70 138 23 276 23 781 0 1237-428 457-428 457-1159 0-753-469-1171-469-417-1322-417-294 0-599 50-304 50-629 150v635q281-153 581-228t634-75q541 0 856 284 316 284 316 772 0 487-316 771-315 285-856 285-253 0-505-56-251-56-513-175v2344z"/>
       </defs>
       <use xlink:href="#DejaVuSans-32"/>
       <use x="63.623047" xlink:href="#DejaVuSans-30"/>
       <use x="127.246094" xlink:href="#DejaVuSans-30"/>
       <use x="190.869141" xlink:href="#DejaVuSans-35"/>
      </g>
     </g>
    </g>
    <g id="xtick_7">
     <g id="line2d_13">
      <path d="m413.86 538.92v-518.92" clip-path="url(#p06b7751b7f)" fill="none" stroke="#b0b0b0" stroke-linecap="square" stroke-width=".8"/>
     </g>
     <g id="line2d_14">
      <use x="413.860165" y="538.92" stroke="#000000" stroke-width=".8" xlink:href="#m4b7b082ea9"/>
     </g>
     <g id="text_7">
      <!-- 2006 -->
      <g transform="translate(401.14 553.52) scale(.1 -.1)">
       <defs>
        <path id="DejaVuSans-36" transform="scale(.015625)" d="m2113 2584q-425 0-674-291-248-290-248-796 0-503 248-796 249-292 674-292t673 292q248 293 248 796 0 506-248 796-248 291-673 291zm1253 1979v-575q-238 112-480 171-242 60-480 60-625 0-955-422-329-422-376-1275 184 272 462 417 279 145 613 145 703 0 1111-427 408-426 408-1160 0-719-425-1154-425-434-1131-434-810 0-1238 620-428 621-428 1799 0 1106 525 1764t1409 658q238 0 480-47t505-140z"/>
       </defs>
       <use xlink:href="#DejaVuSans-32"/>
       <use x="63.623047" xlink:href="#DejaVuSans-30"/>
       <use x="127.246094" xlink:href="#DejaVuSans-30"/>
       <use x="190.869141" xlink:href="#DejaVuSans-36"/>
      </g>
     </g>
    </g>
    <g id="xtick_8">
     <g id="line2d_15">
      <path d="m458.47 538.92v-518.92" clip-path="url(#p06b7751b7f)" fill="none" stroke="#b0b0b0" stroke-linecap="square" stroke-width=".8"/>
     </g>
     <g id="line2d_16">
      <use x="458.465124" y="538.92" stroke="#000000" stroke-width=".8" xlink:href="#m4b7b082ea9"/>
     </g>
     <g id="text_8">
      <!-- 2007 -->
      <g transform="translate(445.74 553.52) scale(.1 -.1)">
       <defs>
        <path id="DejaVuSans-37" transform="scale(.015625)" d="m525 4666h3e3v-269l-1694-4397h-659l1594 4134h-2241v532z"/>
       </defs>
       <use xlink:href="#DejaVuSans-32"/>
       <use x="63.623047" xlink:href="#DejaVuSans-30"/>
       <use x="127.246094" xlink:href="#DejaVuSans-30"/>
       <use x="190.869141" xlink:href="#DejaVuSans-37"/>
      </g>
     </g>
    </g>
    <g id="xtick_9">
     <g id="line2d_17">
      <path d="m503.07 538.92v-518.92" clip-path="url(#p06b7751b7f)" fill="none" stroke="#b0b0b0" stroke-linecap="square" stroke-width=".8"/>
     </g>
     <g id="line2d_18">
      <use x="503.070083" y="538.92" stroke="#000000" stroke-width=".8" xlink:href="#m4b7b082ea9"/>
     </g>
     <g id="text_9">
      <!-- 2008 -->
      <g transform="translate(490.35 553.52) scale(.1 -.1)">
       <defs>
        <path id="DejaVuSans-38" transform="scale(.015625)" d="m2034 2216q-450 0-708-241-257-241-257-662 0-422 257-663 258-241 708-241t709 242q260 243 260 662 0 421-258 662-257 241-711 241zm-631 268q-406 100-633 378-226 279-226 679 0 559 398 884 399 325 1092 325 697 0 1094-325t397-884q0-400-227-679-226-278-629-378 456-106 710-416 255-309 255-755 0-679-414-1042-414-362-1186-362-771 0-1186 362-414 363-414 1042 0 446 256 755 257 310 713 416zm-231 997q0-362 226-565 227-203 636-203 407 0 636 203 230 203 230 565 0 363-230 566-229 203-636 203-409 0-636-203-226-203-226-566z"/>
       </defs>
       <use xlink:href="#DejaVuSans-32"/>
       <use x="63.623047" xlink:href="#DejaVuSans-30"/>
       <use x="127.246094" xlink:href="#DejaVuSans-30"/>
       <use x="190.869141" xlink:href="#DejaVuSans-38"/>
      </g>
     </g>
    </g>
    <g id="xtick_10">
     <g id="line2d_19">
      <path d="m547.68 538.92v-518.92" clip-path="url(#p06b7751b7f)" fill="none" stroke="#b0b0b0" stroke-linecap="square" stroke-width=".8"/>
     </g>
     <g id="line2d_20">
      <use x="547.675041" y="538.92" stroke="#000000" stroke-width=".8" xlink:href="#m4b7b082ea9"/>
     </g>
     <g id="text_10">
      <!-- 2009 -->
      <g transform="translate(534.95 553.52) scale(.1 -.1)">
       <use xlink:href="#DejaVuSans-32"/>
       <use x="63.623047" xlink:href="#DejaVuSans-30"/>
       <use x="127.246094" xlink:href="#DejaVuSans-30"/>
       <use x="190.869141" xlink:href="#DejaVuSans-39"/>
      </g>
     </g>
    </g>
    <g id="xtick_11">
     <g id="line2d_21">
      <path d="m592.28 538.92v-518.92" clip-path="url(#p06b7751b7f)" fill="none" stroke="#b0b0b0" stroke-linecap="square" stroke-width=".8"/>
     </g>
     <g id="line2d_22">
      <use x="592.28" y="538.92" stroke="#000000" stroke-width=".8" xlink:href="#m4b7b082ea9"/>
     </g>
     <g id="text_11">
      <!-- 2010 -->
      <g transform="translate(579.56 553.52) scale(.1 -.1)">
       <use xlink:href="#DejaVuSans-32"/>
       <use x="63.623047" xlink:href="#DejaVuSans-30"/>
       <use x="127.246094" xlink:href="#DejaVuSans-31"/>
       <use x="190.869141" xlink:href="#DejaVuSans-30"/>
      </g>
     </g>
    </g>
    <g id="xtick_12">
     <g id="line2d_23">
      <path d="m636.88 538.92v-518.92" clip-path="url(#p06b7751b7f)" fill="none" stroke="#b0b0b0" stroke-linecap="square" stroke-width=".8"/>
     </g>
     <g id="line2d_24">
      <use x="636.884959" y="538.92" stroke="#000000" stroke-width=".8" xlink:href="#m4b7b082ea9"/>
     </g>
     <g id="text_12">
      <!-- 2011 -->
      <g transform="translate(624.16 553.52) scale(.1 -.1)">
       <use xlink:href="#DejaVuSans-32"/>
       <use x="63.623047" xlink:href="#DejaVuSans-30"/>
       <use x="127.246094" xlink:href="#DejaVuSans-31"/>
       <use x="190.869141" xlink:href="#DejaVuSans-31"/>
      </g>
     </g>
    </g>
    <g id="xtick_13">
     <g id="line2d_25">
      <path d="m681.49 538.92v-518.92" clip-path="url(#p06b7751b7f)" fill="none" stroke="#b0b0b0" stroke-linecap="square" stroke-width=".8"/>
     </g>
     <g id="line2d_26">
      <use x="681.489917" y="538.92" stroke="#000000" stroke-width=".8" xlink:href="#m4b7b082ea9"/>
     </g>
     <g id="text_13">
      <!-- 2012 -->
      <g transform="translate(668.76 553.52) scale(.1 -.1)">
       <use xlink:href="#DejaVuSans-32"/>
       <use x="63.623047" xlink:href="#DejaVuSans-30"/>
       <use x="127.246094" xlink:href="#DejaVuSans-31"/>
       <use x="190.869141" xlink:href="#DejaVuSans-32"/>
      </g>
     </g>
    </g>
    <g id="xtick_14">
     <g id="line2d_27">
      <path d="m726.09 538.92v-518.92" clip-path="url(#p06b7751b7f)" fill="none" stroke="#b0b0b0" stroke-linecap="square" stroke-width=".8"/>
     </g>
     <g id="line2d_28">
      <use x="726.094876" y="538.92" stroke="#000000" stroke-width=".8" xlink:href="#m4b7b082ea9"/>
     </g>
     <g id="text_14">
      <!-- 2013 -->
      <g transform="translate(713.37 553.52) scale(.1 -.1)">
       <use xlink:href="#DejaVuSans-32"/>
       <use x="63.623047" xlink:href="#DejaVuSans-30"/>
       <use x="127.246094" xlink:href="#DejaVuSans-31"/>
       <use x="190.869141" xlink:href="#DejaVuSans-33"/>
      </g>
     </g>
    </g>
    <g id="xtick_15">
     <g id="line2d_29">
      <path d="m770.7 538.92v-518.92" clip-path="url(#p06b7751b7f)" fill="none" stroke="#b0b0b0" stroke-linecap="square" stroke-width=".8"/>
     </g>
     <g id="line2d_30">
      <use x="770.699835" y="538.92" stroke="#000000" stroke-width=".8" xlink:href="#m4b7b082ea9"/>
     </g>
     <g id="text_15">
      <!-- 2014 -->
      <g transform="translate(757.97 553.52) scale(.1 -.1)">
       <use xlink:href="#DejaVuSans-32"/>
       <use x="63.623047" xlink:href="#DejaVuSans-30"/>
       <use x="127.246094" xlink:href="#DejaVuSans-31"/>
       <use x="190.869141" xlink:href="#DejaVuSans-34"/>
      </g>
     </g>
    </g>
    <g id="xtick_16">
     <g id="line2d_31">
      <path d="m815.3 538.92v-518.92" clip-path="url(#p06b7751b7f)" fill="none" stroke="#b0b0b0" stroke-linecap="square" stroke-width=".8"/>
     </g>
     <g id="line2d_32">
      <use x="815.304793" y="538.92" stroke="#000000" stroke-width=".8" xlink:href="#m4b7b082ea9"/>
     </g>
     <g id="text_16">
      <!-- 2015 -->
      <g transform="translate(802.58 553.52) scale(.1 -.1)">
       <use xlink:href="#DejaVuSans-32"/>
       <use x="63.623047" xlink:href="#DejaVuSans-30"/>
       <use x="127.246094" xlink:href="#DejaVuSans-31"/>
       <use x="190.869141" xlink:href="#DejaVuSans-35"/>
      </g>
     </g>
    </g>
    <g id="xtick_17">
     <g id="line2d_33">
      <path d="m859.91 538.92v-518.92" clip-path="url(#p06b7751b7f)" fill="none" stroke="#b0b0b0" stroke-linecap="square" stroke-width=".8"/>
     </g>
     <g id="line2d_34">
      <use x="859.909752" y="538.92" stroke="#000000" stroke-width=".8" xlink:href="#m4b7b082ea9"/>
     </g>
     <g id="text_17">
      <!-- 2016 -->
      <g transform="translate(847.18 553.52) scale(.1 -.1)">
       <use xlink:href="#DejaVuSans-32"/>
       <use x="63.623047" xlink:href="#DejaVuSans-30"/>
       <use x="127.246094" xlink:href="#DejaVuSans-31"/>
       <use x="190.869141" xlink:href="#DejaVuSans-36"/>
      </g>
     </g>
    </g>
    <g id="xtick_18">
     <g id="line2d_35">
      <path d="m904.51 538.92v-518.92" clip-path="url(#p06b7751b7f)" fill="none" stroke="#b0b0b0" stroke-linecap="square" stroke-width=".8"/>
     </g>
     <g id="line2d_36">
      <use x="904.514711" y="538.92" stroke="#000000" stroke-width=".8" xlink:href="#m4b7b082ea9"/>
     </g>
     <g id="text_18">
      <!-- 2017 -->
      <g transform="translate(891.79 553.52) scale(.1 -.1)">
       <use xlink:href="#DejaVuSans-32"/>
       <use x="63.623047" xlink:href="#DejaVuSans-30"/>
       <use x="127.246094" xlink:href="#DejaVuSans-31"/>
       <use x="190.869141" xlink:href="#DejaVuSans-37"/>
      </g>
     </g>
    </g>
    <g id="xtick_19">
     <g id="line2d_37">
      <path d="m949.12 538.92v-518.92" clip-path="url(#p06b7751b7f)" fill="none" stroke="#b0b0b0" stroke-linecap="square" stroke-width=".8"/>
     </g>
     <g id="line2d_38">
      <use x="949.119669" y="538.92" stroke="#000000" stroke-width=".8" xlink:href="#m4b7b082ea9"/>
     </g>
     <g id="text_19">
      <!-- 2018 -->
      <g transform="translate(936.39 553.52) scale(.1 -.1)">
       <use xlink:href="#DejaVuSans-32"/>
       <use x="63.623047" xlink:href="#DejaVuSans-30"/>
       <use x="127.246094" xlink:href="#DejaVuSans-31"/>
       <use x="190.869141" xlink:href="#DejaVuSans-38"/>
      </g>
     </g>
    </g>
    <g id="xtick_20">
     <g id="line2d_39">
      <path d="m993.72 538.92v-518.92" clip-path="url(#p06b7751b7f)" fill="none" stroke="#b0b0b0" stroke-linecap="square" stroke-width=".8"/>
     </g>
     <g id="line2d_40">
      <use x="993.724628" y="538.92" stroke="#000000" stroke-width=".8" xlink:href="#m4b7b082ea9"/>
     </g>
     <g id="text_20">
      <!-- 2019 -->
      <g transform="translate(981 553.52) scale(.1 -.1)">
       <use xlink:href="#DejaVuSans-32"/>
       <use x="63.623047" xlink:href="#DejaVuSans-30"/>
       <use x="127.246094" xlink:href="#DejaVuSans-31"/>
       <use x="190.869141" xlink:href="#DejaVuSans-39"/>
      </g>
     </g>
    </g>
    <g id="xtick_21">
     <g id="line2d_41">
      <path d="m1038.3 538.92v-518.92" clip-path="url(#p06b7751b7f)" fill="none" stroke="#b0b0b0" stroke-linecap="square" stroke-width=".8"/>
     </g>
     <g id="line2d_42">
      <use x="1038.329587" y="538.92" stroke="#000000" stroke-width=".8" xlink:href="#m4b7b082ea9"/>
     </g>
     <g id="text_21">
      <!-- 2020 -->
      <g transform="translate(1025.6 553.52) scale(.1 -.1)">
       <use xlink:href="#DejaVuSans-32"/>
       <use x="63.623047" xlink:href="#DejaVuSans-30"/>
       <use x="127.246094" xlink:href="#DejaVuSans-32"/>
       <use x="190.869141" xlink:href="#DejaVuSans-30"/>
      </g>
     </g>
    </g>
    <g id="xtick_22">
     <g id="line2d_43">
      <path d="m1082.9 538.92v-518.92" clip-path="url(#p06b7751b7f)" fill="none" stroke="#b0b0b0" stroke-linecap="square" stroke-width=".8"/>
     </g>
     <g id="line2d_44">
      <use x="1082.934545" y="538.92" stroke="#000000" stroke-width=".8" xlink:href="#m4b7b082ea9"/>
     </g>
     <g id="text_22">
      <!-- 2021 -->
      <g transform="translate(1070.2 553.52) scale(.1 -.1)">
       <use xlink:href="#DejaVuSans-32"/>
       <use x="63.623047" xlink:href="#DejaVuSans-30"/>
       <use x="127.246094" xlink:href="#DejaVuSans-32"/>
       <use x="190.869141" xlink:href="#DejaVuSans-31"/>
      </g>
     </g>
    </g>
   </g>
   <g id="matplotlib.axis_2">
    <g id="ytick_1">
     <g id="line2d_45">
      <path d="m52.56 538.92h1079.4" clip-path="url(#p06b7751b7f)" fill="none" stroke="#b0b0b0" stroke-linecap="square" stroke-width=".8"/>
     </g>
     <g id="line2d_46">
      <defs>
       <path id="mb3d8530cc5" d="m0 0h-3.5" stroke="#000" stroke-width=".8"/>
      </defs>
      <use x="52.56" y="538.92" stroke="#000000" stroke-width=".8" xlink:href="#mb3d8530cc5"/>
     </g>
     <g id="text_23">
      <!-- 0 -->
      <g transform="translate(39.198 542.72) scale(.1 -.1)">
       <use xlink:href="#DejaVuSans-30"/>
      </g>
     </g>
    </g>
    <g id="ytick_2">
     <g id="line2d_47">
      <path d="m52.56 445.54h1079.4" clip-path="url(#p06b7751b7f)" fill="none" stroke="#b0b0b0" stroke-linecap="square" stroke-width=".8"/>
     </g>
     <g id="line2d_48">
      <use x="52.56" y="445.538679" stroke="#000000" stroke-width=".8" xlink:href="#mb3d8530cc5"/>
     </g>
     <g id="text_24">
      <!-- 200 -->
      <g transform="translate(26.472 449.34) scale(.1 -.1)">
       <use xlink:href="#DejaVuSans-32"/>
       <use x="63.623047" xlink:href="#DejaVuSans-30"/>
       <use x="127.246094" xlink:href="#DejaVuSans-30"/>
      </g>
     </g>
    </g>
    <g id="ytick_3">
     <g id="line2d_49">
      <path d="m52.56 352.16h1079.4" clip-path="url(#p06b7751b7f)" fill="none" stroke="#b0b0b0" stroke-linecap="square" stroke-width=".8"/>
     </g>
     <g id="line2d_50">
      <use x="52.56" y="352.157358" stroke="#000000" stroke-width=".8" xlink:href="#mb3d8530cc5"/>
     </g>
     <g id="text_25">
      <!-- 400 -->
      <g transform="translate(26.472 355.96) scale(.1 -.1)">
       <use xlink:href="#DejaVuSans-34"/>
       <use x="63.623047" xlink:href="#DejaVuSans-30"/>
       <use x="127.246094" xlink:href="#DejaVuSans-30"/>
      </g>
     </g>
    </g>
    <g id="ytick_4">
     <g id="line2d_51">
      <path d="m52.56 258.78h1079.4" clip-path="url(#p06b7751b7f)" fill="none" stroke="#b0b0b0" stroke-linecap="square" stroke-width=".8"/>
     </g>
     <g id="line2d_52">
      <use x="52.56" y="258.776037" stroke="#000000" stroke-width=".8" xlink:href="#mb3d8530cc5"/>
     </g>
     <g id="text_26">
      <!-- 600 -->
      <g transform="translate(26.472 262.58) scale(.1 -.1)">
       <use xlink:href="#DejaVuSans-36"/>
       <use x="63.623047" xlink:href="#DejaVuSans-30"/>
       <use x="127.246094" xlink:href="#DejaVuSans-30"/>
      </g>
     </g>
    </g>
    <g id="ytick_5">
     <g id="line2d_53">
      <path d="m52.56 165.39h1079.4" clip-path="url(#p06b7751b7f)" fill="none" stroke="#b0b0b0" stroke-linecap="square" stroke-width=".8"/>
     </g>
     <g id="line2d_54">
      <use x="52.56" y="165.394717" stroke="#000000" stroke-width=".8" xlink:href="#mb3d8530cc5"/>
     </g>
     <g id="text_27">
      <!-- 800 -->
      <g transform="translate(26.472 169.19) scale(.1 -.1)">
       <use xlink:href="#DejaVuSans-38"/>
       <use x="63.623047" xlink:href="#DejaVuSans-30"/>
       <use x="127.246094" xlink:href="#DejaVuSans-30"/>
      </g>
     </g>
    </g>
    <g id="ytick_6">
     <g id="line2d_55">
      <path d="m52.56 72.013h1079.4" clip-path="url(#p06b7751b7f)" fill="none" stroke="#b0b0b0" stroke-linecap="square" stroke-width=".8"/>
     </g>
     <g id="line2d_56">
      <use x="52.56" y="72.013396" stroke="#000000" stroke-width=".8" xlink:href="#mb3d8530cc5"/>
     </g>
     <g id="text_28">
      <!-- 1000 -->
      <g transform="translate(20.11 75.813) scale(.1 -.1)">
       <use xlink:href="#DejaVuSans-31"/>
       <use x="63.623047" xlink:href="#DejaVuSans-30"/>
       <use x="127.246094" xlink:href="#DejaVuSans-30"/>
       <use x="190.869141" xlink:href="#DejaVuSans-30"/>
      </g>
     </g>
    </g>
   </g>
   <g id="line2d_57">
    <path d="m101.63 376.9h44.605l89.21-276.41 44.605 50.426 44.605-35.952 44.605-26.614 44.605-3.2683 44.605-29.882 44.605-18.209 44.605 28.948 44.605 59.297 44.605-11.673 44.605-17.276 44.605-18.676 44.605-7.0036 44.605 7.9374 44.605-17.276 44.605-18.209 44.605 28.481 44.605-0.93381 44.605-3.7353 44.605-3.2683" clip-path="url(#p06b7751b7f)" fill="none" stroke="#1f77b4" stroke-linecap="square" stroke-width="1.5"/>
   </g>
   <g id="patch_3">
    <path d="m52.56 538.92v-518.92" fill="none" stroke="#000" stroke-linecap="square" stroke-width=".8"/>
   </g>
   <g id="patch_4">
    <path d="m1132 538.92v-518.92" fill="none" stroke="#000" stroke-linecap="square" stroke-width=".8"/>
   </g>
   <g id="patch_5">
    <path d="m52.56 538.92h1079.4" fill="none" stroke="#000" stroke-linecap="square" stroke-width=".8"/>
   </g>
   <g id="patch_6">
    <path d="m52.56 20h1079.4" fill="none" stroke="#000" stroke-linecap="square" stroke-width=".8"/>
   </g>
  </g>
 </g>
 <defs>
  <clipPath id="p06b7751b7f">
   <rect x="52.56" y="20" width="1079.4" height="518.92"/>
  </clipPath>
 </defs>
</svg>
